<mxfile host="65bd71144e">
    <diagram id="pLtpVyUbuMatPzjlErbM" name="Page-1">
        <mxGraphModel dx="1017" dy="670" grid="1" gridSize="10" guides="1" tooltips="1" connect="1" arrows="1" fold="1" page="1" pageScale="1" pageWidth="1169" pageHeight="827" math="0" shadow="0">
            <root>
                <mxCell id="0"/>
                <mxCell id="1" parent="0"/>
                <mxCell id="198" style="edgeStyle=orthogonalEdgeStyle;shape=link;rounded=0;orthogonalLoop=1;jettySize=auto;html=1;exitX=0.5;exitY=1;exitDx=0;exitDy=0;entryX=0.5;entryY=0;entryDx=0;entryDy=0;" edge="1" parent="1" source="2" target="9">
                    <mxGeometry relative="1" as="geometry"/>
                </mxCell>
                <mxCell id="2" value="&lt;h2&gt;&lt;font face=&quot;IRANSans&quot;&gt;Users&lt;/font&gt;&lt;/h2&gt;" style="whiteSpace=wrap;html=1;fillColor=#6a00ff;strokeColor=#3700CC;fontColor=#ffffff;" parent="1" vertex="1">
                    <mxGeometry x="1085.59" y="300" width="160" height="60" as="geometry"/>
                </mxCell>
                <mxCell id="186" style="edgeStyle=orthogonalEdgeStyle;shape=link;rounded=0;orthogonalLoop=1;jettySize=auto;html=1;exitX=0.5;exitY=1;exitDx=0;exitDy=0;fontFamily=IRANSans;fontSize=21;entryX=1;entryY=0.5;entryDx=0;entryDy=0;" parent="1" source="4" target="184" edge="1">
                    <mxGeometry relative="1" as="geometry">
                        <mxPoint x="1010" y="970" as="targetPoint"/>
                        <Array as="points">
                            <mxPoint x="1166" y="910"/>
                            <mxPoint x="1010" y="910"/>
                            <mxPoint x="1010" y="982"/>
                        </Array>
                    </mxGeometry>
                </mxCell>
                <mxCell id="4" value="&lt;h2&gt;&lt;font face=&quot;IRANSans&quot;&gt;Locations&lt;/font&gt;&lt;/h2&gt;" style="whiteSpace=wrap;html=1;fillColor=#d80073;strokeColor=#A50040;fontColor=#ffffff;" parent="1" vertex="1">
                    <mxGeometry x="1085.59" y="690" width="160" height="80" as="geometry"/>
                </mxCell>
                <mxCell id="185" style="edgeStyle=orthogonalEdgeStyle;shape=link;rounded=0;orthogonalLoop=1;jettySize=auto;html=1;exitX=1;exitY=0.5;exitDx=0;exitDy=0;entryX=0;entryY=0.5;entryDx=0;entryDy=0;fontFamily=IRANSans;fontSize=21;" parent="1" source="5" target="184" edge="1">
                    <mxGeometry relative="1" as="geometry"/>
                </mxCell>
                <mxCell id="5" value="&lt;h2 style=&quot;font-size: 20px&quot;&gt;&lt;font style=&quot;font-size: 20px&quot;&gt;Images&lt;/font&gt;&lt;/h2&gt;" style="whiteSpace=wrap;html=1;fillColor=#6a00ff;strokeColor=#3700CC;fontColor=#ffffff;fontSize=20;fontFamily=IRANSans;" parent="1" vertex="1">
                    <mxGeometry x="510" y="950" width="160" height="60" as="geometry"/>
                </mxCell>
                <mxCell id="7" value="&lt;h2 style=&quot;font-size: 20px&quot;&gt;&lt;font style=&quot;font-size: 20px&quot;&gt;Reviews&lt;/font&gt;&lt;/h2&gt;" style="whiteSpace=wrap;html=1;fillColor=#6a00ff;strokeColor=#3700CC;fontColor=#ffffff;fontSize=20;fontFamily=IRANSans;" parent="1" vertex="1">
                    <mxGeometry x="1520" y="950" width="160" height="60" as="geometry"/>
                </mxCell>
                <mxCell id="166" style="edgeStyle=orthogonalEdgeStyle;shape=link;rounded=0;orthogonalLoop=1;jettySize=auto;html=1;exitX=0.5;exitY=1;exitDx=0;exitDy=0;fontFamily=IRANSans;fontSize=20;" parent="1" source="9" target="4" edge="1">
                    <mxGeometry relative="1" as="geometry"/>
                </mxCell>
                <mxCell id="9" value="&lt;p style=&quot;font-size: 15px&quot;&gt;Search&lt;/p&gt;" style="rhombus;whiteSpace=wrap;html=1;fillColor=#e3c800;strokeColor=#B09500;fontColor=#000000;fontFamily=IRANSans;fontSize=15;" parent="1" vertex="1">
                    <mxGeometry x="1129.04" y="450" width="73.09" height="85" as="geometry"/>
                </mxCell>
                <mxCell id="195" style="edgeStyle=orthogonalEdgeStyle;shape=link;rounded=0;orthogonalLoop=1;jettySize=auto;html=1;exitX=0.5;exitY=1;exitDx=0;exitDy=0;" edge="1" parent="1" source="36" target="7">
                    <mxGeometry relative="1" as="geometry"/>
                </mxCell>
                <mxCell id="36" value="&lt;p style=&quot;font-size: 21px;&quot;&gt;Insert&lt;/p&gt;" style="rhombus;whiteSpace=wrap;html=1;fillColor=#e3c800;strokeColor=#B09500;fontColor=#000000;fontFamily=IRANSans;fontSize=21;" parent="1" vertex="1">
                    <mxGeometry x="1550" y="680" width="100" height="100" as="geometry"/>
                </mxCell>
                <mxCell id="60" value="&lt;h1&gt;&lt;font face=&quot;IRANSans&quot;&gt;&lt;u&gt;ID&lt;/u&gt;&lt;/font&gt;&lt;/h1&gt;" style="ellipse;whiteSpace=wrap;html=1;fillColor=#fa6800;strokeColor=#C73500;fontColor=#FFFFFF;" parent="1" vertex="1">
                    <mxGeometry x="739.9999999999999" y="850" width="93.75" height="50" as="geometry"/>
                </mxCell>
                <mxCell id="61" value="" style="endArrow=none;html=1;fontColor=#FFFFFF;entryX=0.5;entryY=1;entryDx=0;entryDy=0;exitX=1;exitY=0;exitDx=0;exitDy=0;" parent="1" source="5" target="60" edge="1">
                    <mxGeometry width="50" height="50" relative="1" as="geometry">
                        <mxPoint x="860" y="960" as="sourcePoint"/>
                        <mxPoint x="912.46875" y="1210" as="targetPoint"/>
                    </mxGeometry>
                </mxCell>
                <mxCell id="63" value="" style="endArrow=none;html=1;fontColor=#FFFFFF;exitX=0.5;exitY=1;exitDx=0;exitDy=0;entryX=0.25;entryY=0;entryDx=0;entryDy=0;" parent="1" source="159" target="5" edge="1">
                    <mxGeometry width="50" height="50" relative="1" as="geometry">
                        <mxPoint x="686.875" y="885" as="sourcePoint"/>
                        <mxPoint x="810" y="830" as="targetPoint"/>
                    </mxGeometry>
                </mxCell>
                <mxCell id="110" value="" style="endArrow=none;html=1;fontColor=#FFFFFF;entryX=0.5;entryY=1;entryDx=0;entryDy=0;exitX=0.25;exitY=0;exitDx=0;exitDy=0;" parent="1" source="4" target="161" edge="1">
                    <mxGeometry width="50" height="50" relative="1" as="geometry">
                        <mxPoint x="1058.13" y="660" as="sourcePoint"/>
                        <mxPoint x="1098.03125" y="611" as="targetPoint"/>
                    </mxGeometry>
                </mxCell>
                <mxCell id="118" value="" style="endArrow=none;html=1;fontColor=#FFFFFF;entryX=0.5;entryY=1;entryDx=0;entryDy=0;exitX=1;exitY=0.25;exitDx=0;exitDy=0;" parent="1" source="4" target="163" edge="1">
                    <mxGeometry width="50" height="50" relative="1" as="geometry">
                        <mxPoint x="1251.21" y="710" as="sourcePoint"/>
                        <mxPoint x="1363.71" y="650" as="targetPoint"/>
                    </mxGeometry>
                </mxCell>
                <mxCell id="125" value="&lt;h1&gt;&lt;font&gt;&lt;u&gt;ID&lt;/u&gt;&lt;/font&gt;&lt;/h1&gt;" style="ellipse;whiteSpace=wrap;html=1;fillColor=#fa6800;strokeColor=#C73500;fontColor=#FFFFFF;fontFamily=IRANSans;" parent="1" vertex="1">
                    <mxGeometry x="1118.71" y="120" width="93.75" height="50" as="geometry"/>
                </mxCell>
                <mxCell id="126" value="" style="endArrow=none;html=1;fontColor=#FFFFFF;entryX=0.5;entryY=1;entryDx=0;entryDy=0;exitX=0.5;exitY=0;exitDx=0;exitDy=0;" parent="1" source="2" target="125" edge="1">
                    <mxGeometry width="50" height="50" relative="1" as="geometry">
                        <mxPoint x="1160" y="320" as="sourcePoint"/>
                        <mxPoint x="1210" y="270" as="targetPoint"/>
                    </mxGeometry>
                </mxCell>
                <mxCell id="128" value="&lt;font style=&quot;font-size: 20px;&quot;&gt;Email&lt;/font&gt;" style="ellipse;whiteSpace=wrap;html=1;fillColor=#fa6800;strokeColor=#C73500;fontColor=#FFFFFF;fontSize=20;fontFamily=IRANSans;" parent="1" vertex="1">
                    <mxGeometry x="1240" y="140" width="93.75" height="50" as="geometry"/>
                </mxCell>
                <mxCell id="129" value="" style="endArrow=none;html=1;fontColor=#FFFFFF;entryX=0.392;entryY=1.06;entryDx=0;entryDy=0;entryPerimeter=0;exitX=0.75;exitY=0;exitDx=0;exitDy=0;" parent="1" source="2" target="128" edge="1">
                    <mxGeometry width="50" height="50" relative="1" as="geometry">
                        <mxPoint x="1320" y="270" as="sourcePoint"/>
                        <mxPoint x="1370" y="220" as="targetPoint"/>
                    </mxGeometry>
                </mxCell>
                <mxCell id="130" value="&lt;font style=&quot;font-size: 20px;&quot;&gt;Name&lt;/font&gt;" style="ellipse;whiteSpace=wrap;html=1;fillColor=#fa6800;strokeColor=#C73500;fontColor=#FFFFFF;fontFamily=IRANSans;fontSize=20;" parent="1" vertex="1">
                    <mxGeometry x="942.5" y="170" width="93.75" height="50" as="geometry"/>
                </mxCell>
                <mxCell id="131" value="" style="endArrow=none;html=1;fontColor=#FFFFFF;entryX=0.5;entryY=1;entryDx=0;entryDy=0;exitX=0.25;exitY=0;exitDx=0;exitDy=0;" parent="1" source="2" target="130" edge="1">
                    <mxGeometry width="50" height="50" relative="1" as="geometry">
                        <mxPoint x="1160" y="310" as="sourcePoint"/>
                        <mxPoint x="1210" y="260" as="targetPoint"/>
                    </mxGeometry>
                </mxCell>
                <mxCell id="147" value="" style="endArrow=none;html=1;fontColor=#FFFFFF;entryX=0.5;entryY=1;entryDx=0;entryDy=0;exitX=0.75;exitY=0;exitDx=0;exitDy=0;" parent="1" source="7" target="160" edge="1">
                    <mxGeometry width="50" height="50" relative="1" as="geometry">
                        <mxPoint x="1603.75" y="950" as="sourcePoint"/>
                        <mxPoint x="1793.75" y="895" as="targetPoint"/>
                    </mxGeometry>
                </mxCell>
                <mxCell id="154" value="&lt;h1&gt;&lt;font face=&quot;IRANSans&quot;&gt;&lt;u&gt;ID&lt;/u&gt;&lt;/font&gt;&lt;/h1&gt;" style="ellipse;whiteSpace=wrap;html=1;fillColor=#fa6800;strokeColor=#C73500;fontColor=#FFFFFF;" parent="1" vertex="1">
                    <mxGeometry x="1400" y="820" width="93.75" height="50" as="geometry"/>
                </mxCell>
                <mxCell id="155" value="" style="endArrow=none;html=1;fontColor=#FFFFFF;entryX=0.5;entryY=1;entryDx=0;entryDy=0;exitX=0.25;exitY=0;exitDx=0;exitDy=0;" parent="1" source="7" target="154" edge="1">
                    <mxGeometry width="50" height="50" relative="1" as="geometry">
                        <mxPoint x="1518" y="980" as="sourcePoint"/>
                        <mxPoint x="1603.75" y="810" as="targetPoint"/>
                    </mxGeometry>
                </mxCell>
                <mxCell id="159" value="&lt;font style=&quot;font-size: 20px&quot;&gt;URL&lt;/font&gt;" style="ellipse;whiteSpace=wrap;html=1;fillColor=#fa6800;strokeColor=#C73500;fontColor=#FFFFFF;fontFamily=IRANSans;fontSize=20;" parent="1" vertex="1">
                    <mxGeometry x="491" y="810" width="93.75" height="50" as="geometry"/>
                </mxCell>
                <mxCell id="160" value="&lt;font style=&quot;font-size: 20px&quot;&gt;Rate&lt;/font&gt;" style="ellipse;whiteSpace=wrap;html=1;fillColor=#fa6800;strokeColor=#C73500;fontColor=#FFFFFF;fontFamily=IRANSans;fontSize=20;" parent="1" vertex="1">
                    <mxGeometry x="1650" y="810" width="93.75" height="50" as="geometry"/>
                </mxCell>
                <mxCell id="161" value="&lt;h1&gt;&lt;font&gt;&lt;u&gt;ID&lt;/u&gt;&lt;/font&gt;&lt;/h1&gt;" style="ellipse;whiteSpace=wrap;html=1;fillColor=#fa6800;strokeColor=#C73500;fontColor=#FFFFFF;fontFamily=IRANSans;" parent="1" vertex="1">
                    <mxGeometry x="1036.25" y="520" width="93.75" height="50" as="geometry"/>
                </mxCell>
                <mxCell id="162" value="&lt;font style=&quot;font-size: 20px&quot;&gt;Name&lt;/font&gt;" style="ellipse;whiteSpace=wrap;html=1;fillColor=#fa6800;strokeColor=#C73500;fontColor=#FFFFFF;fontFamily=IRANSans;fontSize=20;" parent="1" vertex="1">
                    <mxGeometry x="930" y="570" width="93.75" height="50" as="geometry"/>
                </mxCell>
                <mxCell id="163" value="Long" style="ellipse;whiteSpace=wrap;html=1;fillColor=#fa6800;strokeColor=#C73500;fontColor=#FFFFFF;fontSize=20;fontFamily=IRANSans;" parent="1" vertex="1">
                    <mxGeometry x="1312.3500000000001" y="575" width="87.65" height="45" as="geometry"/>
                </mxCell>
                <mxCell id="167" value="N" style="text;html=1;strokeColor=none;fillColor=none;align=center;verticalAlign=middle;whiteSpace=wrap;rounded=0;fontFamily=IRANSans;fontSize=15;" parent="1" vertex="1">
                    <mxGeometry x="1560" y="900" width="40" height="20" as="geometry"/>
                </mxCell>
                <mxCell id="170" value="" style="endArrow=none;html=1;fontFamily=IRANSans;fontSize=15;exitX=0;exitY=0.5;exitDx=0;exitDy=0;entryX=0.5;entryY=1;entryDx=0;entryDy=0;" parent="1" source="4" target="162" edge="1">
                    <mxGeometry width="50" height="50" relative="1" as="geometry">
                        <mxPoint x="1050" y="710" as="sourcePoint"/>
                        <mxPoint x="1019.0976560668448" y="605.4504309334316" as="targetPoint"/>
                    </mxGeometry>
                </mxCell>
                <mxCell id="172" value="" style="endArrow=none;html=1;fontFamily=IRANSans;fontSize=21;exitX=0;exitY=0.5;exitDx=0;exitDy=0;entryX=1;entryY=0.5;entryDx=0;entryDy=0;" parent="1" source="36" target="4" edge="1">
                    <mxGeometry width="50" height="50" relative="1" as="geometry">
                        <mxPoint x="1330" y="900" as="sourcePoint"/>
                        <mxPoint x="1380" y="850" as="targetPoint"/>
                    </mxGeometry>
                </mxCell>
                <mxCell id="173" value="1" style="text;html=1;strokeColor=none;fillColor=none;align=center;verticalAlign=middle;whiteSpace=wrap;rounded=0;fontFamily=IRANSans;fontSize=15;" parent="1" vertex="1">
                    <mxGeometry x="1250" y="740" width="40" height="20" as="geometry"/>
                </mxCell>
                <mxCell id="178" style="edgeStyle=orthogonalEdgeStyle;shape=link;rounded=0;orthogonalLoop=1;jettySize=auto;html=1;exitX=0.5;exitY=1;exitDx=0;exitDy=0;entryX=1;entryY=0.5;entryDx=0;entryDy=0;fontFamily=IRANSans;fontSize=21;width=6;" parent="1" source="176" target="7" edge="1">
                    <mxGeometry relative="1" as="geometry">
                        <Array as="points">
                            <mxPoint x="1675" y="690"/>
                            <mxPoint x="1810" y="690"/>
                            <mxPoint x="1810" y="980"/>
                        </Array>
                    </mxGeometry>
                </mxCell>
                <mxCell id="176" value="&lt;p style=&quot;font-size: 21px&quot;&gt;Rate&lt;/p&gt;" style="rhombus;whiteSpace=wrap;html=1;fillColor=#e3c800;strokeColor=#B09500;fontColor=#000000;fontFamily=IRANSans;fontSize=21;" parent="1" vertex="1">
                    <mxGeometry x="1630" y="230" width="90" height="90" as="geometry"/>
                </mxCell>
                <mxCell id="179" value="&lt;h1&gt;&lt;font&gt;User_ID&lt;/font&gt;&lt;/h1&gt;" style="ellipse;whiteSpace=wrap;html=1;fillColor=#fa6800;fontColor=#FFFFFF;fontFamily=IRANSans;dashed=1;dashPattern=1 1;strokeWidth=3;strokeColor=#FFFFFF;" parent="1" vertex="1">
                    <mxGeometry x="1320" y="910" width="117.5" height="65" as="geometry"/>
                </mxCell>
                <mxCell id="180" value="" style="endArrow=none;html=1;fontFamily=IRANSans;fontSize=21;entryX=0;entryY=0.5;entryDx=0;entryDy=0;exitX=1;exitY=0.5;exitDx=0;exitDy=0;" parent="1" source="179" target="7" edge="1">
                    <mxGeometry width="50" height="50" relative="1" as="geometry">
                        <mxPoint x="1390" y="860" as="sourcePoint"/>
                        <mxPoint x="1440" y="810" as="targetPoint"/>
                    </mxGeometry>
                </mxCell>
                <mxCell id="181" value="" style="endArrow=none;html=1;fontFamily=IRANSans;fontSize=21;entryX=0.5;entryY=0;entryDx=0;entryDy=0;exitX=1;exitY=0.5;exitDx=0;exitDy=0;" parent="1" source="2" target="176" edge="1">
                    <mxGeometry width="50" height="50" relative="1" as="geometry">
                        <mxPoint x="1390" y="560" as="sourcePoint"/>
                        <mxPoint x="1440" y="510" as="targetPoint"/>
                    </mxGeometry>
                </mxCell>
                <mxCell id="182" value="1" style="text;html=1;strokeColor=none;fillColor=none;align=center;verticalAlign=middle;whiteSpace=wrap;rounded=0;fontFamily=IRANSans;fontSize=15;" parent="1" vertex="1">
                    <mxGeometry x="1252.5000000000002" y="290" width="40" height="20" as="geometry"/>
                </mxCell>
                <mxCell id="183" value="N" style="text;html=1;strokeColor=none;fillColor=none;align=center;verticalAlign=middle;whiteSpace=wrap;rounded=0;fontFamily=IRANSans;fontSize=15;" parent="1" vertex="1">
                    <mxGeometry x="1690" y="950" width="40" height="20" as="geometry"/>
                </mxCell>
                <mxCell id="184" value="&lt;p style=&quot;font-size: 15px&quot;&gt;Insert&lt;/p&gt;" style="rhombus;whiteSpace=wrap;html=1;fillColor=#e3c800;strokeColor=#B09500;fontColor=#000000;fontFamily=IRANSans;fontSize=15;" parent="1" vertex="1">
                    <mxGeometry x="854.36" y="928.75" width="88.14" height="102.5" as="geometry"/>
                </mxCell>
                <mxCell id="187" value="N" style="text;html=1;strokeColor=none;fillColor=none;align=center;verticalAlign=middle;whiteSpace=wrap;rounded=0;fontFamily=IRANSans;fontSize=15;" parent="1" vertex="1">
                    <mxGeometry x="1129" y="660" width="40" height="20" as="geometry"/>
                </mxCell>
                <mxCell id="188" value="M" style="text;html=1;strokeColor=none;fillColor=none;align=center;verticalAlign=middle;whiteSpace=wrap;rounded=0;fontFamily=IRANSans;fontSize=15;" parent="1" vertex="1">
                    <mxGeometry x="1118.71" y="370" width="40" height="20" as="geometry"/>
                </mxCell>
                <mxCell id="197" value="&lt;h2&gt;&lt;font face=&quot;IRANSans&quot;&gt;Users Locations&lt;/font&gt;&lt;/h2&gt;" style="whiteSpace=wrap;html=1;fillColor=#6a00ff;strokeColor=#3700CC;fontColor=#ffffff;" vertex="1" parent="1">
                    <mxGeometry x="1350" y="450" width="160" height="60" as="geometry"/>
                </mxCell>
                <mxCell id="199" value="" style="endArrow=none;html=1;entryX=1;entryY=0.5;entryDx=0;entryDy=0;exitX=0;exitY=0.5;exitDx=0;exitDy=0;" edge="1" parent="1" source="197" target="9">
                    <mxGeometry width="50" height="50" relative="1" as="geometry">
                        <mxPoint x="930" y="550" as="sourcePoint"/>
                        <mxPoint x="980" y="500" as="targetPoint"/>
                    </mxGeometry>
                </mxCell>
                <mxCell id="202" style="edgeStyle=orthogonalEdgeStyle;shape=link;rounded=0;orthogonalLoop=1;jettySize=auto;html=1;exitX=0.5;exitY=1;exitDx=0;exitDy=0;entryX=0.75;entryY=0;entryDx=0;entryDy=0;" edge="1" parent="1" source="200" target="5">
                    <mxGeometry relative="1" as="geometry"/>
                </mxCell>
                <mxCell id="200" value="&lt;p style=&quot;font-size: 15px&quot;&gt;Insert&lt;/p&gt;" style="rhombus;whiteSpace=wrap;html=1;fillColor=#e3c800;strokeColor=#B09500;fontColor=#000000;fontFamily=IRANSans;fontSize=15;" vertex="1" parent="1">
                    <mxGeometry x="610" y="550" width="73.09" height="85" as="geometry"/>
                </mxCell>
                <mxCell id="203" value="" style="endArrow=none;html=1;entryX=0;entryY=0.5;entryDx=0;entryDy=0;exitX=0.5;exitY=0;exitDx=0;exitDy=0;" edge="1" parent="1" source="200" target="2">
                    <mxGeometry width="50" height="50" relative="1" as="geometry">
                        <mxPoint x="840" y="530" as="sourcePoint"/>
                        <mxPoint x="890" y="480" as="targetPoint"/>
                    </mxGeometry>
                </mxCell>
                <mxCell id="204" value="1" style="text;html=1;strokeColor=none;fillColor=none;align=center;verticalAlign=middle;whiteSpace=wrap;rounded=0;fontFamily=IRANSans;fontSize=15;" vertex="1" parent="1">
                    <mxGeometry x="1036.25" y="300" width="40" height="20" as="geometry"/>
                </mxCell>
                <mxCell id="205" value="N" style="text;html=1;strokeColor=none;fillColor=none;align=center;verticalAlign=middle;whiteSpace=wrap;rounded=0;fontFamily=IRANSans;fontSize=15;" vertex="1" parent="1">
                    <mxGeometry x="580" y="920" width="40" height="20" as="geometry"/>
                </mxCell>
                <mxCell id="206" value="Lat" style="ellipse;whiteSpace=wrap;html=1;fillColor=#fa6800;strokeColor=#C73500;fontColor=#FFFFFF;fontSize=20;fontFamily=IRANSans;" vertex="1" parent="1">
                    <mxGeometry x="1202.13" y="560" width="87.65" height="45" as="geometry"/>
                </mxCell>
                <mxCell id="210" value="" style="endArrow=none;html=1;entryX=0.5;entryY=1;entryDx=0;entryDy=0;exitX=0.75;exitY=0;exitDx=0;exitDy=0;" edge="1" parent="1" source="4" target="206">
                    <mxGeometry width="50" height="50" relative="1" as="geometry">
                        <mxPoint x="1110" y="710" as="sourcePoint"/>
                        <mxPoint x="1160" y="660" as="targetPoint"/>
                    </mxGeometry>
                </mxCell>
                <mxCell id="211" value="&lt;h1&gt;&lt;font&gt;&lt;u&gt;ID&lt;/u&gt;&lt;/font&gt;&lt;/h1&gt;" style="ellipse;whiteSpace=wrap;html=1;fillColor=#fa6800;strokeColor=#C73500;fontColor=#FFFFFF;fontFamily=IRANSans;" vertex="1" parent="1">
                    <mxGeometry x="1390" y="372.5" width="93.75" height="50" as="geometry"/>
                </mxCell>
                <mxCell id="212" value="&lt;h1&gt;&lt;font&gt;User_ID&lt;/font&gt;&lt;/h1&gt;" style="ellipse;whiteSpace=wrap;html=1;fillColor=#fa6800;fontColor=#FFFFFF;fontFamily=IRANSans;dashed=1;dashPattern=1 1;strokeWidth=3;strokeColor=#FFFFFF;" vertex="1" parent="1">
                    <mxGeometry x="1252.5" y="365" width="117.5" height="65" as="geometry"/>
                </mxCell>
                <mxCell id="213" value="&lt;h1&gt;&lt;font style=&quot;font-size: 17px&quot;&gt;Location_ID&lt;/font&gt;&lt;/h1&gt;" style="ellipse;whiteSpace=wrap;html=1;fillColor=#fa6800;fontColor=#FFFFFF;fontFamily=IRANSans;dashed=1;dashPattern=1 1;strokeWidth=3;strokeColor=#FFFFFF;" vertex="1" parent="1">
                    <mxGeometry x="1510" y="399" width="104.62" height="57.87" as="geometry"/>
                </mxCell>
                <mxCell id="216" value="" style="endArrow=none;html=1;entryX=0.5;entryY=1;entryDx=0;entryDy=0;exitX=0;exitY=0;exitDx=0;exitDy=0;" edge="1" parent="1" source="197" target="212">
                    <mxGeometry width="50" height="50" relative="1" as="geometry">
                        <mxPoint x="1370" y="480" as="sourcePoint"/>
                        <mxPoint x="1420" y="430" as="targetPoint"/>
                    </mxGeometry>
                </mxCell>
                <mxCell id="218" value="" style="endArrow=none;html=1;entryX=0.5;entryY=1;entryDx=0;entryDy=0;exitX=1;exitY=0.5;exitDx=0;exitDy=0;" edge="1" parent="1" source="197" target="213">
                    <mxGeometry width="50" height="50" relative="1" as="geometry">
                        <mxPoint x="1370" y="480" as="sourcePoint"/>
                        <mxPoint x="1420" y="430" as="targetPoint"/>
                    </mxGeometry>
                </mxCell>
                <mxCell id="220" value="" style="endArrow=none;html=1;entryX=0.5;entryY=1;entryDx=0;entryDy=0;exitX=0.5;exitY=0;exitDx=0;exitDy=0;" edge="1" parent="1" source="197" target="211">
                    <mxGeometry width="50" height="50" relative="1" as="geometry">
                        <mxPoint x="1370" y="480" as="sourcePoint"/>
                        <mxPoint x="1420" y="430" as="targetPoint"/>
                    </mxGeometry>
                </mxCell>
                <mxCell id="221" value="&lt;font style=&quot;font-size: 20px&quot;&gt;Content&lt;/font&gt;" style="ellipse;whiteSpace=wrap;html=1;fillColor=#fa6800;strokeColor=#C73500;fontColor=#FFFFFF;fontFamily=IRANSans;fontSize=20;" vertex="1" parent="1">
                    <mxGeometry x="1660" y="1100" width="93.75" height="50" as="geometry"/>
                </mxCell>
                <mxCell id="222" value="" style="endArrow=none;html=1;entryX=0.5;entryY=0;entryDx=0;entryDy=0;exitX=0.75;exitY=1;exitDx=0;exitDy=0;" edge="1" parent="1" source="7" target="221">
                    <mxGeometry width="50" height="50" relative="1" as="geometry">
                        <mxPoint x="1640" y="1060" as="sourcePoint"/>
                        <mxPoint x="1690" y="1010" as="targetPoint"/>
                    </mxGeometry>
                </mxCell>
                <mxCell id="224" value="&lt;h1&gt;&lt;font style=&quot;font-size: 17px&quot;&gt;Location_ID&lt;/font&gt;&lt;/h1&gt;" style="ellipse;whiteSpace=wrap;html=1;fillColor=#fa6800;fontColor=#FFFFFF;fontFamily=IRANSans;dashed=1;dashPattern=1 1;strokeWidth=3;strokeColor=#FFFFFF;" vertex="1" parent="1">
                    <mxGeometry x="1405.38" y="1080" width="104.62" height="57.87" as="geometry"/>
                </mxCell>
                <mxCell id="225" value="" style="endArrow=none;html=1;exitX=0.5;exitY=0;exitDx=0;exitDy=0;entryX=0.5;entryY=1;entryDx=0;entryDy=0;" edge="1" parent="1" source="224" target="7">
                    <mxGeometry width="50" height="50" relative="1" as="geometry">
                        <mxPoint x="1640" y="990" as="sourcePoint"/>
                        <mxPoint x="1690" y="940" as="targetPoint"/>
                    </mxGeometry>
                </mxCell>
                <mxCell id="226" value="&lt;h1&gt;&lt;font&gt;User_ID&lt;/font&gt;&lt;/h1&gt;" style="ellipse;whiteSpace=wrap;html=1;fillColor=#fa6800;fontColor=#FFFFFF;fontFamily=IRANSans;dashed=1;dashPattern=1 1;strokeWidth=3;strokeColor=#FFFFFF;" vertex="1" parent="1">
                    <mxGeometry x="540" y="1120" width="117.5" height="65" as="geometry"/>
                </mxCell>
                <mxCell id="227" value="&lt;h1&gt;&lt;font style=&quot;font-size: 17px&quot;&gt;Location_ID&lt;/font&gt;&lt;/h1&gt;" style="ellipse;whiteSpace=wrap;html=1;fillColor=#fa6800;fontColor=#FFFFFF;fontFamily=IRANSans;dashed=1;dashPattern=1 1;strokeWidth=3;strokeColor=#FFFFFF;" vertex="1" parent="1">
                    <mxGeometry x="310" y="975" width="104.62" height="57.87" as="geometry"/>
                </mxCell>
                <mxCell id="228" value="" style="endArrow=none;html=1;exitX=1;exitY=0.5;exitDx=0;exitDy=0;entryX=0;entryY=0.5;entryDx=0;entryDy=0;" edge="1" parent="1" source="227" target="5">
                    <mxGeometry width="50" height="50" relative="1" as="geometry">
                        <mxPoint x="570" y="990" as="sourcePoint"/>
                        <mxPoint x="620" y="940" as="targetPoint"/>
                    </mxGeometry>
                </mxCell>
                <mxCell id="229" value="" style="endArrow=none;html=1;exitX=0.5;exitY=0;exitDx=0;exitDy=0;entryX=0.5;entryY=1;entryDx=0;entryDy=0;" edge="1" parent="1" source="226" target="5">
                    <mxGeometry width="50" height="50" relative="1" as="geometry">
                        <mxPoint x="570" y="990" as="sourcePoint"/>
                        <mxPoint x="620" y="940" as="targetPoint"/>
                    </mxGeometry>
                </mxCell>
            </root>
        </mxGraphModel>
    </diagram>
</mxfile>
